<svg xmlns="http://www.w3.org/2000/svg" width="333" height="383" viewBox="0 0 333 383" role="img"><title>gitsh</title><g fill="none" fill-rule="evenodd"><path fill="#F14E32" d="M184.186 7.326l141.488 141.488c9.768 9.768 9.768 25.604 0 35.372L184.186 325.674c-9.768 9.768-25.604 9.768-35.372 0L7.326 184.186c-9.768-9.768-9.768-25.604 0-35.372L148.814 7.326c9.768-9.768 25.604-9.768 35.372 0z"/><circle cx="221" cy="298" r="85" fill="#FFF"/><circle cx="221" cy="298" r="75" fill="#4E443C"/><path fill="#FFF" d="M87.906 176.448c0-11.396 10.508-16.872 10.508-16.872s-4.588-5.476-4.588-14.356c0-13.764 10.36-25.9 25.456-25.9h25.9c1.628 0 2.812 1.184 2.812 2.812v3.7c0 1.036-.592 2.368-1.628 2.516l-8.14 2.22s6.364 4.736 6.364 15.836c0 12.58-9.768 24.124-25.16 24.124-7.548 0-11.692-2.368-12.876-2.368-1.036 0-6.068 2.516-6.068 7.252 0 3.404 2.664 6.068 7.104 6.068h20.128c12.876 0 23.236 6.956 23.236 19.832 0 13.024-11.84 24.568-31.524 24.568-20.868 0-29.304-10.656-29.304-20.276 0-8.88 7.252-13.024 8.732-13.912v-.444c-3.108-.888-10.952-4.884-10.952-14.8zm31.672-17.316c7.4 0 12.432-5.624 12.432-13.616s-5.032-13.616-12.432-13.616c-7.548 0-13.024 5.624-13.024 13.616s5.476 13.616 13.024 13.616zm-15.688 44.104c0 6.068 6.364 10.508 15.392 10.508 9.028 0 16.872-4.588 16.872-11.692 0-2.368-1.48-8.436-11.1-8.436-4.292 0-8.732 0-13.024.296-.888.296-8.14 2.664-8.14 9.324zm64.824-106.56c-4.736 0-8.436-3.848-8.436-8.584 0-4.884 3.7-8.732 8.436-8.732 4.884 0 8.732 3.848 8.732 8.732 0 4.736-3.848 8.584-8.732 8.584zm-6.808 80.512v-53.576c0-1.48 1.332-2.812 2.812-2.812h8.436c1.48 0 2.812 1.332 2.812 2.812v53.576c0 1.48-1.332 2.812-2.812 2.812h-8.436c-1.48 0-2.812-1.332-2.812-2.812zm37.148-13.32v-30.784h-6.216c-1.628 0-2.812-1.332-2.812-2.812v-6.66c0-1.628 1.184-2.812 2.812-2.812h6.216v-16.428c0-1.48 1.332-2.812 2.812-2.812l8.436-.148c1.48 0 2.664 1.332 2.664 2.812V120.8h15.096c1.628 0 2.812 1.184 2.812 2.812v6.66c0 1.48-1.184 2.812-2.812 2.812h-15.096v29.304c0 5.032 1.924 5.92 4.736 5.92 3.108 0 7.252-1.776 9.028-2.664 1.924-.888 2.812 0 3.404 1.332l2.664 6.512c.74 1.628.148 2.812-1.332 3.552-1.48.888-10.212 4.44-17.316 4.44-11.692 0-15.096-7.104-15.096-17.612zM177.3 319.8v-7.908c0-1.304.245-2.237.733-2.8.49-.563 1.282-.844 2.378-.844 1.214 0 2.177.83 2.888 2.488.474 1.007.903 1.763 1.288 2.266 1.245 1.6 3.081 2.881 5.51 3.844 2.43.963 5.11 1.444 8.043 1.444 3.14 0 5.658-.637 7.553-1.91 1.896-1.274 2.844-2.948 2.844-5.022 0-2.103-.763-3.599-2.288-4.487-1.526-.89-4.14-1.333-7.843-1.333h-2.444c-6.043 0-10.649-1.052-13.818-3.155-3.17-2.103-4.755-5.154-4.755-9.154 0-3.91 1.548-6.946 4.643-9.108 3.096-2.163 7.443-3.244 13.042-3.244 2.28 0 4.606.318 6.976.955s3.614.956 3.732.956c.326 0 .948-.29 1.866-.867.919-.577 1.822-.866 2.71-.866 1.008 0 1.756.37 2.245 1.11.489.741.733 1.852.733 3.333v5.199c0 1.57-.237 2.703-.711 3.399-.474.696-1.23 1.044-2.266 1.044-.889 0-1.985-.755-3.288-2.266-.918-1.037-1.674-1.822-2.266-2.355-1.57-1.451-3.244-2.496-5.021-3.133-1.778-.636-3.866-.955-6.265-.955-2.785 0-5.029.615-6.732 1.844-1.703 1.23-2.555 2.792-2.555 4.688 0 1.866.874 3.2 2.622 3.999 1.747.8 5.51 1.259 11.286 1.377 6.161.148 10.664 1.222 13.507 3.222 2.844 2 4.266 5.087 4.266 9.264 0 4-1.57 7.198-4.71 9.598-3.14 2.4-7.376 3.599-12.708 3.599-1.688 0-3.57-.156-5.643-.467-2.074-.31-4.68-.836-7.82-1.577-1.037.681-1.926 1.192-2.666 1.533-.74.34-1.363.511-1.866.511-1.037 0-1.83-.363-2.378-1.089-.548-.725-.822-1.77-.822-3.132zm52.275-3.065v-45.5h-.844c-2.014 0-3.4-.237-4.155-.711-.755-.474-1.133-1.303-1.133-2.488 0-1.067.304-1.867.911-2.4.608-.533 1.489-.8 2.644-.8h6.754c.8 0 1.422.163 1.866.49.445.325.667.77.667 1.332v20.129c2.162-2.015 4.302-3.503 6.42-4.466a15.776 15.776 0 0 1 6.599-1.444c4.473 0 7.99 1.392 10.553 4.177 2.562 2.784 3.843 6.635 3.843 11.552v20.129h2.089c1.48 0 2.547.244 3.199.733.651.489.977 1.266.977 2.333 0 1.066-.296 1.866-.888 2.4-.593.532-1.481.799-2.666.799h-11.82c-1.392 0-2.332-.23-2.821-.689-.489-.459-.733-1.296-.733-2.51 0-1.185.303-1.992.91-2.422.608-.43 1.756-.644 3.444-.644h1.555V298.25c0-3.465-.785-6.11-2.355-7.93-1.57-1.823-3.85-2.734-6.842-2.734-3.052 0-5.725 1.022-8.02 3.066-2.296 2.044-3.444 4.577-3.444 7.598v18.485h1.555c1.777 0 2.977.222 3.599.666.622.445.933 1.245.933 2.4 0 1.214-.244 2.051-.733 2.51-.489.46-1.43.689-2.822.689h-11.819c-1.155 0-2.022-.267-2.6-.8-.577-.533-.866-1.333-.866-2.4 0-1.184.348-1.991 1.044-2.42.697-.43 2.052-.645 4.066-.645h.933z"/></g></svg>
