<?xml version="1.0" encoding="UTF-8" standalone="no"?>
<!DOCTYPE svg PUBLIC "-//W3C//DTD SVG 1.1//EN" "http://www.w3.org/Graphics/SVG/1.1/DTD/svg11.dtd">
<svg width="375px" height="422px" viewBox="0 0 375 422" version="1.1" xmlns="http://www.w3.org/2000/svg" xmlns:xlink="http://www.w3.org/1999/xlink" xml:space="preserve" style="fill-rule:evenodd;clip-rule:evenodd;stroke-linejoin:round;stroke-miterlimit:1.41421;">
    <rect x="0" y="0" width="375" height="422" style="fill:none;"/>
    <path d="M204.369,32.315c-10.537,-10.537 -27.647,-10.537 -38.184,0l-138.593,138.593c-10.537,10.537 -10.537,27.647 0,38.184l138.593,138.593c10.537,10.537 27.647,10.537 38.184,0l138.593,-138.593c10.537,-10.537 10.537,-27.647 0,-38.184l-138.593,-138.593Z" style="fill:#ee533a;"/>
    <circle cx="242.501" cy="323" r="75" style="fill:#403b33;"/>
    <path d="M242.774,238l0.275,0.002l0.273,0.002l0.274,0.003l0.274,0.004l0.273,0.005l0.272,0.005l0.273,0.007l0.274,0.007l0.272,0.008l0.272,0.009l0.273,0.01l0.271,0.011l0.271,0.012l0.272,0.012l0.272,0.014l0.271,0.014l0.271,0.015l0.27,0.016l0.27,0.016l0.271,0.018l0.27,0.018l0.27,0.02l0.269,0.02l0.27,0.021l0.268,0.021l0.27,0.023l0.269,0.024l0.268,0.024l0.268,0.025l0.268,0.026l0.268,0.027l0.268,0.027l0.275,0.03l0.526,0.058l0.533,0.063l0.532,0.066l0.531,0.069l0.53,0.073l0.529,0.076l0.528,0.079l0.527,0.082l0.526,0.086l0.525,0.088l0.524,0.092l0.523,0.096l0.522,0.098l0.52,0.102l0.519,0.104l0.519,0.108l0.517,0.111l0.516,0.114l0.515,0.118l0.514,0.12l0.512,0.124l0.512,0.126l0.51,0.13l0.509,0.133l0.508,0.135l0.506,0.139l0.505,0.142l0.504,0.145l0.503,0.148l0.501,0.151l0.5,0.154l0.499,0.157l0.498,0.16l0.496,0.163l0.494,0.166l0.494,0.169l0.492,0.171l0.49,0.175l0.49,0.178l0.487,0.18l0.487,0.183l0.485,0.187l0.484,0.189l0.482,0.192l0.48,0.195l0.479,0.197l0.478,0.201l0.476,0.203l0.475,0.206l0.473,0.209l0.472,0.212l0.47,0.214l0.469,0.217l0.467,0.22l0.465,0.223l0.464,0.225l0.462,0.228l0.461,0.231l0.459,0.234l0.458,0.236l0.455,0.239l0.455,0.241l0.452,0.245l0.451,0.246l0.449,0.25l0.448,0.252l0.446,0.255l0.444,0.257l0.442,0.26l0.441,0.262l0.439,0.265l0.437,0.268l0.436,0.27l0.433,0.273l0.432,0.275l0.43,0.278l0.429,0.28l0.426,0.283l0.425,0.285l0.423,0.287l0.421,0.291l0.419,0.292l0.418,0.295l0.415,0.298l0.414,0.299l0.411,0.303l0.41,0.304l0.408,0.308l0.406,0.309l0.404,0.312l0.402,0.314l0.401,0.317l0.398,0.318l0.396,0.322l0.395,0.323l0.392,0.326l0.39,0.328l0.389,0.331l0.386,0.332l0.384,0.335l0.383,0.337l0.38,0.34l0.378,0.341l0.376,0.344l0.374,0.347l0.372,0.348l0.37,0.351l0.368,0.352l0.365,0.355l0.364,0.357l0.361,0.359l0.36,0.362l0.357,0.363l0.355,0.366l0.352,0.367l0.351,0.37l0.348,0.372l0.346,0.374l0.344,0.376l0.342,0.379l0.339,0.38l0.337,0.382l0.335,0.384l0.333,0.387l0.33,0.388l0.329,0.39l0.325,0.393l0.324,0.394l0.321,0.396l0.319,0.399l0.317,0.4l0.314,0.402l0.311,0.404l0.31,0.406l0.307,0.408l0.305,0.41l0.302,0.412l0.3,0.413l0.297,0.416l0.295,0.417l0.293,0.42l0.29,0.421l0.288,0.422l0.285,0.425l0.283,0.427l0.28,0.428l0.278,0.43l0.275,0.432l0.272,0.434l0.271,0.435l0.267,0.438l0.265,0.439l0.263,0.441l0.26,0.442l0.257,0.444l0.255,0.446l0.252,0.447l0.249,0.45l0.247,0.45l0.244,0.453l0.242,0.454l0.238,0.456l0.237,0.458l0.233,0.459l0.231,0.46l0.228,0.463l0.226,0.463l0.222,0.466l0.22,0.467l0.218,0.469l0.214,0.47l0.212,0.471l0.208,0.473l0.207,0.475l0.203,0.477l0.2,0.477l0.198,0.479l0.195,0.481l0.192,0.482l0.189,0.484l0.186,0.485l0.183,0.486l0.181,0.488l0.177,0.489l0.175,0.491l0.172,0.492l0.169,0.493l0.165,0.495l0.163,0.496l0.16,0.497l0.157,0.499l0.154,0.5l0.151,0.502l0.148,0.502l0.145,0.504l0.142,0.506l0.139,0.506l0.136,0.508l0.133,0.508l0.129,0.511l0.127,0.511l0.123,0.513l0.121,0.513l0.117,0.515l0.114,0.516l0.111,0.518l0.108,0.518l0.105,0.519l0.102,0.521l0.098,0.522l0.095,0.523l0.092,0.524l0.089,0.524l0.085,0.526l0.083,0.527l0.079,0.529l0.076,0.529l0.072,0.53l0.07,0.531l0.066,0.532l0.062,0.533l0.059,0.526l0.029,0.275l0.028,0.268l0.026,0.267l0.026,0.268l0.026,0.269l0.024,0.268l0.023,0.269l0.023,0.269l0.022,0.268l0.021,0.27l0.02,0.27l0.019,0.27l0.019,0.269l0.017,0.271l0.017,0.271l0.016,0.27l0.015,0.271l0.014,0.271l0.013,0.272l0.013,0.271l0.011,0.271l0.011,0.272l0.01,0.272l0.009,0.273l0.008,0.272l0.008,0.273l0.006,0.272l0.006,0.274l0.005,0.273l0.004,0.274l0.003,0.273l0.002,0.274l0.001,0.274l0.001,0.274l-0.001,0.274l-0.001,0.274l-0.002,0.274l-0.003,0.273l-0.004,0.274l-0.005,0.273l-0.006,0.274l-0.006,0.272l-0.008,0.273l-0.008,0.272l-0.009,0.273l-0.01,0.272l-0.011,0.272l-0.011,0.271l-0.013,0.271l-0.013,0.272l-0.014,0.272l-0.015,0.27l-0.016,0.27l-0.017,0.271l-0.017,0.271l-0.019,0.269l-0.019,0.27l-0.02,0.27l-0.021,0.27l-0.022,0.268l-0.023,0.269l-0.023,0.269l-0.024,0.268l-0.026,0.269l-0.025,0.268l-0.027,0.267l-0.028,0.268l-0.029,0.275l-0.059,0.526l-0.062,0.533l-0.066,0.532l-0.07,0.531l-0.072,0.53l-0.076,0.529l-0.079,0.529l-0.083,0.527l-0.085,0.526l-0.089,0.524l-0.092,0.524l-0.095,0.523l-0.098,0.522l-0.102,0.521l-0.105,0.519l-0.108,0.518l-0.111,0.518l-0.114,0.516l-0.117,0.515l-0.121,0.513l-0.123,0.513l-0.127,0.511l-0.129,0.511l-0.133,0.509l-0.136,0.507l-0.139,0.506l-0.142,0.506l-0.145,0.504l-0.148,0.502l-0.151,0.502l-0.154,0.5l-0.157,0.499l-0.16,0.497l-0.163,0.496l-0.165,0.495l-0.169,0.493l-0.172,0.492l-0.175,0.491l-0.177,0.489l-0.181,0.488l-0.183,0.486l-0.186,0.485l-0.189,0.484l-0.192,0.482l-0.195,0.481l-0.198,0.479l-0.2,0.477l-0.203,0.477l-0.207,0.475l-0.208,0.473l-0.212,0.471l-0.214,0.47l-0.218,0.469l-0.22,0.467l-0.222,0.466l-0.226,0.463l-0.228,0.463l-0.231,0.46l-0.233,0.459l-0.237,0.458l-0.238,0.456l-0.242,0.454l-0.244,0.452l-0.247,0.451l-0.249,0.45l-0.252,0.447l-0.255,0.446l-0.257,0.444l-0.26,0.443l-0.263,0.441l-0.265,0.438l-0.267,0.438l-0.271,0.435l-0.272,0.434l-0.275,0.432l-0.278,0.43l-0.28,0.428l-0.283,0.427l-0.285,0.424l-0.288,0.423l-0.29,0.422l-0.293,0.419l-0.295,0.417l-0.297,0.416l-0.3,0.413l-0.302,0.412l-0.305,0.41l-0.307,0.408l-0.309,0.406l-0.312,0.404l-0.315,0.402l-0.316,0.4l-0.319,0.399l-0.321,0.396l-0.324,0.394l-0.325,0.393l-0.329,0.39l-0.33,0.388l-0.333,0.386l-0.335,0.385l-0.337,0.382l-0.339,0.38l-0.342,0.379l-0.344,0.376l-0.346,0.374l-0.348,0.372l-0.351,0.369l-0.352,0.368l-0.356,0.366l-0.356,0.363l-0.36,0.362l-0.361,0.359l-0.364,0.357l-0.365,0.355l-0.368,0.353l-0.37,0.35l-0.372,0.348l-0.374,0.346l-0.376,0.345l-0.378,0.341l-0.38,0.34l-0.383,0.337l-0.384,0.335l-0.386,0.333l-0.389,0.33l-0.39,0.328l-0.392,0.326l-0.395,0.323l-0.396,0.321l-0.398,0.319l-0.401,0.317l-0.402,0.314l-0.404,0.312l-0.406,0.31l-0.407,0.306l-0.411,0.305l-0.412,0.303l-0.413,0.299l-0.415,0.298l-0.418,0.295l-0.419,0.293l-0.421,0.29l-0.423,0.287l-0.425,0.285l-0.426,0.283l-0.429,0.28l-0.43,0.278l-0.432,0.275l-0.433,0.273l-0.436,0.27l-0.437,0.268l-0.439,0.265l-0.441,0.262l-0.442,0.26l-0.444,0.257l-0.446,0.255l-0.448,0.252l-0.449,0.25l-0.451,0.246l-0.452,0.245l-0.455,0.241l-0.455,0.239l-0.458,0.236l-0.459,0.234l-0.461,0.231l-0.462,0.228l-0.464,0.225l-0.465,0.223l-0.468,0.22l-0.468,0.217l-0.47,0.214l-0.472,0.212l-0.473,0.209l-0.475,0.206l-0.476,0.203l-0.477,0.201l-0.48,0.197l-0.481,0.195l-0.481,0.192l-0.484,0.189l-0.485,0.187l-0.487,0.183l-0.487,0.18l-0.49,0.178l-0.49,0.175l-0.492,0.171l-0.494,0.169l-0.494,0.166l-0.496,0.163l-0.498,0.16l-0.499,0.157l-0.5,0.154l-0.501,0.151l-0.503,0.148l-0.504,0.145l-0.505,0.142l-0.506,0.138l-0.508,0.136l-0.509,0.133l-0.51,0.13l-0.512,0.126l-0.512,0.124l-0.514,0.12l-0.515,0.118l-0.516,0.114l-0.517,0.111l-0.519,0.108l-0.519,0.104l-0.52,0.102l-0.522,0.098l-0.523,0.096l-0.524,0.092l-0.525,0.088l-0.526,0.086l-0.527,0.082l-0.528,0.079l-0.529,0.076l-0.53,0.073l-0.531,0.069l-0.532,0.066l-0.533,0.063l-0.526,0.058l-0.275,0.03l-0.268,0.027l-0.268,0.027l-0.268,0.026l-0.268,0.025l-0.269,0.024l-0.268,0.024l-0.269,0.022l-0.269,0.022l-0.27,0.021l-0.269,0.02l-0.27,0.02l-0.27,0.018l-0.27,0.018l-0.271,0.016l-0.271,0.016l-0.271,0.015l-0.27,0.014l-0.272,0.014l-0.271,0.012l-0.272,0.012l-0.272,0.011l-0.272,0.01l-0.272,0.009l-0.272,0.008l-0.273,0.007l-0.274,0.007l-0.273,0.005l-0.272,0.005l-0.274,0.004l-0.274,0.003l-0.273,0.002l-0.274,0.002l-0.274,0l-0.275,0l-0.274,-0.002l-0.273,-0.002l-0.274,-0.003l-0.274,-0.004l-0.272,-0.005l-0.273,-0.005l-0.274,-0.007l-0.273,-0.007l-0.272,-0.008l-0.272,-0.009l-0.272,-0.01l-0.272,-0.011l-0.272,-0.012l-0.271,-0.012l-0.271,-0.014l-0.271,-0.014l-0.271,-0.015l-0.271,-0.016l-0.271,-0.016l-0.27,-0.018l-0.27,-0.018l-0.27,-0.02l-0.269,-0.02l-0.269,-0.021l-0.27,-0.022l-0.269,-0.022l-0.268,-0.024l-0.269,-0.024l-0.268,-0.025l-0.268,-0.026l-0.268,-0.027l-0.267,-0.027l-0.276,-0.03l-0.526,-0.058l-0.533,-0.063l-0.532,-0.066l-0.531,-0.069l-0.53,-0.073l-0.529,-0.076l-0.528,-0.079l-0.527,-0.082l-0.526,-0.086l-0.525,-0.088l-0.524,-0.092l-0.523,-0.096l-0.522,-0.098l-0.52,-0.102l-0.519,-0.104l-0.519,-0.108l-0.517,-0.111l-0.516,-0.114l-0.515,-0.118l-0.514,-0.12l-0.512,-0.124l-0.512,-0.126l-0.51,-0.13l-0.509,-0.133l-0.508,-0.135l-0.506,-0.139l-0.505,-0.142l-0.504,-0.145l-0.503,-0.148l-0.501,-0.151l-0.5,-0.154l-0.499,-0.157l-0.497,-0.16l-0.497,-0.163l-0.494,-0.166l-0.494,-0.169l-0.492,-0.171l-0.49,-0.175l-0.49,-0.178l-0.487,-0.18l-0.487,-0.183l-0.485,-0.187l-0.483,-0.189l-0.482,-0.192l-0.481,-0.195l-0.48,-0.197l-0.477,-0.201l-0.476,-0.203l-0.475,-0.206l-0.473,-0.209l-0.472,-0.212l-0.47,-0.214l-0.468,-0.217l-0.468,-0.22l-0.465,-0.223l-0.464,-0.225l-0.462,-0.228l-0.461,-0.231l-0.459,-0.234l-0.457,-0.236l-0.456,-0.239l-0.455,-0.241l-0.452,-0.245l-0.451,-0.246l-0.449,-0.25l-0.448,-0.252l-0.445,-0.255l-0.445,-0.257l-0.442,-0.26l-0.441,-0.262l-0.439,-0.265l-0.437,-0.268l-0.436,-0.27l-0.433,-0.273l-0.432,-0.275l-0.43,-0.278l-0.429,-0.28l-0.426,-0.283l-0.425,-0.285l-0.423,-0.287l-0.421,-0.29l-0.419,-0.293l-0.418,-0.295l-0.415,-0.298l-0.413,-0.299l-0.412,-0.303l-0.411,-0.305l-0.407,-0.307l-0.406,-0.309l-0.404,-0.312l-0.403,-0.314l-0.4,-0.317l-0.398,-0.318l-0.396,-0.322l-0.395,-0.323l-0.392,-0.326l-0.39,-0.328l-0.389,-0.33l-0.386,-0.333l-0.384,-0.335l-0.383,-0.337l-0.38,-0.34l-0.378,-0.341l-0.376,-0.345l-0.374,-0.346l-0.372,-0.348l-0.37,-0.35l-0.368,-0.353l-0.365,-0.355l-0.364,-0.357l-0.361,-0.359l-0.359,-0.362l-0.357,-0.363l-0.355,-0.366l-0.353,-0.368l-0.351,-0.369l-0.348,-0.372l-0.346,-0.374l-0.344,-0.376l-0.342,-0.379l-0.339,-0.38l-0.337,-0.382l-0.335,-0.384l-0.333,-0.387l-0.33,-0.388l-0.329,-0.39l-0.325,-0.393l-0.324,-0.394l-0.321,-0.396l-0.319,-0.399l-0.316,-0.4l-0.315,-0.402l-0.312,-0.404l-0.309,-0.406l-0.307,-0.408l-0.305,-0.41l-0.302,-0.412l-0.3,-0.413l-0.297,-0.416l-0.295,-0.417l-0.293,-0.419l-0.29,-0.422l-0.288,-0.423l-0.285,-0.424l-0.283,-0.427l-0.28,-0.428l-0.278,-0.43l-0.275,-0.432l-0.272,-0.434l-0.271,-0.435l-0.267,-0.438l-0.265,-0.439l-0.263,-0.44l-0.26,-0.443l-0.257,-0.444l-0.255,-0.446l-0.252,-0.447l-0.249,-0.449l-0.247,-0.452l-0.244,-0.452l-0.242,-0.454l-0.239,-0.456l-0.236,-0.457l-0.233,-0.459l-0.231,-0.461l-0.228,-0.463l-0.226,-0.463l-0.222,-0.466l-0.22,-0.467l-0.217,-0.469l-0.215,-0.47l-0.212,-0.471l-0.208,-0.474l-0.207,-0.474l-0.203,-0.476l-0.2,-0.478l-0.198,-0.479l-0.195,-0.481l-0.192,-0.482l-0.189,-0.483l-0.186,-0.486l-0.183,-0.486l-0.181,-0.488l-0.177,-0.489l-0.175,-0.491l-0.172,-0.492l-0.169,-0.493l-0.166,-0.495l-0.162,-0.496l-0.16,-0.497l-0.157,-0.499l-0.154,-0.5l-0.151,-0.502l-0.148,-0.502l-0.145,-0.504l-0.142,-0.505l-0.139,-0.507l-0.136,-0.508l-0.133,-0.509l-0.129,-0.51l-0.127,-0.511l-0.123,-0.513l-0.121,-0.513l-0.117,-0.515l-0.114,-0.516l-0.111,-0.518l-0.108,-0.518l-0.105,-0.52l-0.101,-0.52l-0.099,-0.522l-0.095,-0.523l-0.092,-0.523l-0.089,-0.525l-0.085,-0.527l-0.083,-0.527l-0.079,-0.528l-0.076,-0.528l-0.072,-0.531l-0.069,-0.531l-0.066,-0.532l-0.063,-0.533l-0.059,-0.526l-0.029,-0.275l-0.028,-0.268l-0.026,-0.267l-0.026,-0.269l-0.026,-0.268l-0.024,-0.268l-0.023,-0.269l-0.023,-0.269l-0.022,-0.269l-0.021,-0.269l-0.02,-0.27l-0.019,-0.269l-0.019,-0.271l-0.017,-0.27l-0.017,-0.271l-0.016,-0.27l-0.015,-0.271l-0.014,-0.271l-0.013,-0.271l-0.013,-0.272l-0.011,-0.272l-0.011,-0.271l-0.01,-0.272l-0.009,-0.273l-0.008,-0.272l-0.008,-0.273l-0.006,-0.273l-0.006,-0.273l-0.005,-0.273l-0.004,-0.273l-0.003,-0.274l-0.002,-0.274l-0.001,-0.274l0,-0.274l0,-0.274l0.001,-0.274l0.002,-0.274l0.003,-0.274l0.004,-0.273l0.005,-0.273l0.006,-0.273l0.006,-0.273l0.008,-0.273l0.008,-0.272l0.009,-0.273l0.01,-0.272l0.011,-0.271l0.011,-0.272l0.013,-0.272l0.013,-0.271l0.014,-0.271l0.015,-0.271l0.016,-0.27l0.017,-0.271l0.017,-0.27l0.019,-0.271l0.019,-0.269l0.02,-0.27l0.021,-0.269l0.022,-0.269l0.023,-0.269l0.023,-0.269l0.024,-0.268l0.026,-0.268l0.026,-0.269l0.026,-0.267l0.028,-0.268l0.029,-0.275l0.059,-0.526l0.063,-0.533l0.066,-0.532l0.069,-0.531l0.072,-0.53l0.076,-0.529l0.079,-0.528l0.083,-0.527l0.085,-0.527l0.089,-0.525l0.092,-0.523l0.095,-0.523l0.099,-0.522l0.101,-0.52l0.105,-0.52l0.108,-0.518l0.111,-0.518l0.114,-0.516l0.117,-0.515l0.121,-0.513l0.123,-0.513l0.127,-0.511l0.129,-0.51l0.133,-0.509l0.136,-0.508l0.139,-0.507l0.142,-0.505l0.145,-0.504l0.148,-0.502l0.151,-0.502l0.154,-0.5l0.157,-0.499l0.16,-0.497l0.162,-0.496l0.166,-0.495l0.169,-0.493l0.172,-0.492l0.175,-0.491l0.177,-0.489l0.181,-0.488l0.183,-0.486l0.186,-0.485l0.189,-0.484l0.192,-0.482l0.195,-0.481l0.198,-0.479l0.2,-0.478l0.203,-0.476l0.207,-0.475l0.208,-0.473l0.212,-0.471l0.215,-0.47l0.217,-0.469l0.22,-0.467l0.222,-0.466l0.226,-0.463l0.228,-0.463l0.231,-0.461l0.233,-0.459l0.236,-0.457l0.239,-0.456l0.242,-0.454l0.244,-0.453l0.247,-0.451l0.249,-0.449l0.253,-0.447l0.254,-0.446l0.257,-0.444l0.26,-0.442l0.263,-0.441l0.265,-0.439l0.267,-0.438l0.271,-0.435l0.272,-0.434l0.275,-0.432l0.278,-0.43l0.28,-0.428l0.283,-0.427l0.285,-0.425l0.288,-0.422l0.29,-0.421l0.293,-0.42l0.295,-0.417l0.297,-0.416l0.3,-0.413l0.302,-0.412l0.305,-0.41l0.307,-0.408l0.31,-0.406l0.311,-0.404l0.314,-0.402l0.317,-0.4l0.319,-0.399l0.321,-0.396l0.324,-0.394l0.325,-0.393l0.328,-0.39l0.331,-0.388l0.333,-0.387l0.335,-0.384l0.337,-0.382l0.339,-0.38l0.342,-0.379l0.344,-0.376l0.346,-0.374l0.348,-0.372l0.351,-0.37l0.353,-0.367l0.354,-0.366l0.358,-0.363l0.359,-0.362l0.361,-0.359l0.364,-0.357l0.365,-0.355l0.368,-0.353l0.37,-0.35l0.372,-0.348l0.374,-0.347l0.376,-0.343l0.378,-0.342l0.38,-0.34l0.383,-0.337l0.384,-0.335l0.386,-0.333l0.389,-0.33l0.39,-0.328l0.392,-0.326l0.395,-0.323l0.396,-0.322l0.398,-0.318l0.4,-0.317l0.403,-0.314l0.404,-0.312l0.406,-0.309l0.408,-0.308l0.41,-0.304l0.411,-0.302l0.414,-0.3l0.415,-0.298l0.418,-0.295l0.419,-0.292l0.421,-0.291l0.423,-0.287l0.425,-0.285l0.426,-0.283l0.429,-0.28l0.43,-0.278l0.432,-0.275l0.434,-0.273l0.435,-0.27l0.437,-0.268l0.439,-0.265l0.441,-0.262l0.442,-0.26l0.444,-0.257l0.446,-0.255l0.448,-0.252l0.449,-0.25l0.451,-0.246l0.452,-0.245l0.455,-0.241l0.456,-0.239l0.457,-0.236l0.459,-0.234l0.461,-0.231l0.462,-0.228l0.464,-0.225l0.465,-0.223l0.467,-0.22l0.469,-0.217l0.47,-0.214l0.472,-0.212l0.473,-0.209l0.475,-0.206l0.476,-0.203l0.478,-0.201l0.479,-0.197l0.48,-0.195l0.483,-0.192l0.483,-0.189l0.485,-0.187l0.487,-0.183l0.488,-0.18l0.489,-0.178l0.49,-0.175l0.492,-0.171l0.494,-0.169l0.494,-0.166l0.497,-0.163l0.497,-0.16l0.499,-0.157l0.5,-0.154l0.501,-0.151l0.503,-0.148l0.504,-0.145l0.505,-0.142l0.507,-0.139l0.507,-0.135l0.509,-0.133l0.51,-0.13l0.512,-0.126l0.512,-0.124l0.514,-0.12l0.515,-0.118l0.516,-0.114l0.517,-0.111l0.519,-0.108l0.519,-0.104l0.52,-0.102l0.522,-0.098l0.523,-0.096l0.524,-0.092l0.525,-0.088l0.526,-0.086l0.527,-0.082l0.528,-0.079l0.529,-0.076l0.53,-0.073l0.531,-0.069l0.533,-0.066l0.532,-0.063l0.527,-0.058l0.275,-0.03l0.267,-0.027l0.268,-0.027l0.268,-0.026l0.268,-0.025l0.268,-0.024l0.269,-0.024l0.27,-0.023l0.269,-0.021l0.269,-0.021l0.269,-0.02l0.27,-0.02l0.27,-0.018l0.271,-0.018l0.27,-0.016l0.27,-0.016l0.271,-0.015l0.272,-0.014l0.271,-0.014l0.272,-0.012l0.271,-0.012l0.272,-0.011l0.272,-0.01l0.272,-0.009l0.272,-0.008l0.274,-0.007l0.273,-0.007l0.272,-0.005l0.273,-0.005l0.274,-0.004l0.274,-0.003l0.273,-0.002l0.275,-0.002l0.274,0l0.273,0Zm-0.516,10l-0.242,0.002l-0.242,0.001l-0.242,0.003l-0.242,0.004l-0.241,0.004l-0.242,0.005l-0.241,0.006l-0.241,0.006l-0.241,0.007l-0.24,0.008l-0.241,0.009l-0.24,0.01l-0.24,0.01l-0.24,0.011l-0.24,0.012l-0.239,0.012l-0.239,0.013l-0.239,0.015l-0.239,0.014l-0.239,0.016l-0.238,0.016l-0.238,0.017l-0.238,0.018l-0.238,0.018l-0.238,0.02l-0.237,0.02l-0.238,0.02l-0.237,0.022l-0.236,0.022l-0.237,0.023l-0.236,0.024l-0.236,0.024l-0.236,0.025l-0.471,0.052l-0.471,0.056l-0.469,0.058l-0.469,0.061l-0.467,0.064l-0.467,0.067l-0.466,0.07l-0.465,0.072l-0.464,0.076l-0.463,0.078l-0.462,0.081l-0.461,0.084l-0.46,0.087l-0.459,0.09l-0.458,0.092l-0.457,0.095l-0.456,0.098l-0.455,0.101l-0.454,0.103l-0.453,0.106l-0.451,0.109l-0.451,0.112l-0.45,0.114l-0.449,0.117l-0.447,0.12l-0.447,0.122l-0.445,0.125l-0.444,0.128l-0.443,0.13l-0.442,0.133l-0.441,0.136l-0.44,0.139l-0.438,0.141l-0.437,0.143l-0.436,0.146l-0.435,0.149l-0.434,0.152l-0.433,0.154l-0.431,0.156l-0.43,0.159l-0.429,0.162l-0.427,0.164l-0.427,0.167l-0.425,0.169l-0.423,0.172l-0.423,0.174l-0.421,0.177l-0.42,0.179l-0.419,0.182l-0.417,0.184l-0.416,0.187l-0.414,0.189l-0.414,0.191l-0.411,0.194l-0.411,0.197l-0.409,0.198l-0.408,0.202l-0.406,0.203l-0.405,0.206l-0.404,0.208l-0.402,0.211l-0.4,0.213l-0.4,0.216l-0.397,0.217l-0.397,0.221l-0.395,0.222l-0.393,0.225l-0.392,0.227l-0.39,0.229l-0.389,0.232l-0.387,0.233l-0.386,0.237l-0.385,0.238l-0.382,0.241l-0.381,0.242l-0.38,0.246l-0.378,0.247l-0.377,0.249l-0.375,0.252l-0.373,0.254l-0.371,0.256l-0.371,0.258l-0.368,0.261l-0.367,0.262l-0.365,0.265l-0.363,0.267l-0.362,0.269l-0.36,0.271l-0.359,0.273l-0.357,0.276l-0.355,0.277l-0.353,0.279l-0.352,0.282l-0.35,0.284l-0.348,0.285l-0.346,0.288l-0.345,0.29l-0.343,0.292l-0.341,0.293l-0.339,0.296l-0.338,0.298l-0.336,0.3l-0.334,0.301l-0.332,0.304l-0.33,0.306l-0.329,0.307l-0.326,0.31l-0.325,0.311l-0.323,0.314l-0.321,0.315l-0.319,0.317l-0.317,0.32l-0.316,0.321l-0.313,0.322l-0.312,0.325l-0.309,0.327l-0.308,0.328l-0.305,0.331l-0.304,0.332l-0.302,0.334l-0.3,0.335l-0.297,0.338l-0.296,0.339l-0.294,0.341l-0.292,0.343l-0.289,0.345l-0.288,0.347l-0.286,0.348l-0.283,0.35l-0.282,0.351l-0.279,0.354l-0.278,0.355l-0.275,0.357l-0.273,0.358l-0.271,0.36l-0.269,0.362l-0.267,0.364l-0.265,0.365l-0.263,0.367l-0.26,0.368l-0.258,0.37l-0.256,0.372l-0.254,0.373l-0.252,0.375l-0.25,0.376l-0.247,0.378l-0.245,0.38l-0.243,0.381l-0.241,0.383l-0.238,0.384l-0.236,0.386l-0.234,0.387l-0.231,0.389l-0.23,0.391l-0.227,0.392l-0.225,0.393l-0.222,0.395l-0.22,0.396l-0.218,0.398l-0.215,0.399l-0.213,0.401l-0.211,0.402l-0.208,0.403l-0.206,0.405l-0.204,0.407l-0.201,0.407l-0.199,0.409l-0.196,0.411l-0.194,0.412l-0.192,0.413l-0.189,0.415l-0.187,0.416l-0.184,0.417l-0.181,0.418l-0.18,0.42l-0.176,0.422l-0.175,0.422l-0.171,0.424l-0.17,0.425l-0.166,0.426l-0.165,0.428l-0.161,0.429l-0.159,0.43l-0.157,0.431l-0.154,0.432l-0.151,0.434l-0.149,0.435l-0.146,0.436l-0.144,0.437l-0.141,0.439l-0.138,0.44l-0.136,0.44l-0.133,0.442l-0.13,0.443l-0.128,0.445l-0.125,0.445l-0.123,0.446l-0.12,0.448l-0.117,0.449l-0.114,0.449l-0.112,0.451l-0.108,0.452l-0.107,0.453l-0.103,0.454l-0.101,0.455l-0.097,0.456l-0.096,0.457l-0.092,0.458l-0.089,0.459l-0.087,0.46l-0.084,0.461l-0.081,0.462l-0.079,0.463l-0.075,0.464l-0.073,0.465l-0.069,0.465l-0.067,0.467l-0.064,0.468l-0.061,0.468l-0.059,0.47l-0.055,0.47l-0.052,0.471l-0.026,0.236l-0.024,0.236l-0.024,0.237l-0.023,0.236l-0.022,0.237l-0.021,0.237l-0.021,0.237l-0.02,0.238l-0.019,0.237l-0.019,0.238l-0.017,0.238l-0.017,0.238l-0.017,0.239l-0.015,0.238l-0.015,0.239l-0.014,0.239l-0.013,0.24l-0.013,0.239l-0.012,0.24l-0.011,0.239l-0.01,0.24l-0.009,0.241l-0.009,0.24l-0.008,0.241l-0.007,0.24l-0.007,0.241l-0.006,0.242l-0.005,0.241l-0.004,0.242l-0.003,0.241l-0.003,0.242l-0.002,0.242l-0.001,0.243l0,0.242l0,0.242l0.001,0.243l0.002,0.242l0.003,0.242l0.003,0.241l0.004,0.242l0.005,0.241l0.006,0.242l0.007,0.241l0.007,0.24l0.008,0.241l0.009,0.24l0.009,0.241l0.01,0.24l0.011,0.239l0.012,0.24l0.013,0.239l0.013,0.24l0.014,0.239l0.015,0.239l0.015,0.238l0.017,0.239l0.017,0.238l0.017,0.238l0.019,0.238l0.019,0.237l0.02,0.238l0.021,0.237l0.021,0.237l0.022,0.237l0.023,0.236l0.024,0.237l0.024,0.236l0.026,0.236l0.052,0.471l0.055,0.47l0.059,0.47l0.061,0.468l0.064,0.468l0.067,0.467l0.069,0.465l0.073,0.465l0.075,0.464l0.079,0.463l0.081,0.462l0.084,0.461l0.087,0.46l0.089,0.459l0.092,0.458l0.096,0.457l0.097,0.456l0.101,0.455l0.103,0.454l0.107,0.453l0.108,0.452l0.112,0.451l0.114,0.449l0.117,0.449l0.12,0.448l0.123,0.446l0.125,0.445l0.128,0.445l0.13,0.443l0.133,0.442l0.136,0.44l0.138,0.44l0.141,0.439l0.144,0.437l0.146,0.436l0.149,0.435l0.151,0.434l0.154,0.432l0.157,0.431l0.159,0.43l0.161,0.429l0.165,0.428l0.166,0.426l0.17,0.425l0.171,0.424l0.175,0.422l0.176,0.422l0.18,0.42l0.181,0.418l0.184,0.417l0.187,0.416l0.189,0.415l0.192,0.413l0.194,0.412l0.196,0.411l0.199,0.409l0.201,0.407l0.204,0.407l0.206,0.405l0.208,0.403l0.211,0.402l0.213,0.401l0.215,0.399l0.218,0.398l0.22,0.396l0.222,0.395l0.225,0.393l0.227,0.392l0.23,0.391l0.231,0.389l0.234,0.387l0.236,0.386l0.238,0.384l0.241,0.383l0.243,0.381l0.245,0.38l0.247,0.378l0.25,0.376l0.252,0.375l0.254,0.373l0.256,0.372l0.258,0.37l0.26,0.368l0.263,0.367l0.265,0.365l0.267,0.364l0.269,0.362l0.271,0.36l0.273,0.358l0.275,0.357l0.278,0.355l0.279,0.354l0.282,0.351l0.283,0.35l0.286,0.348l0.288,0.347l0.289,0.345l0.292,0.343l0.294,0.341l0.296,0.339l0.297,0.338l0.3,0.335l0.302,0.334l0.304,0.332l0.305,0.331l0.308,0.328l0.309,0.327l0.312,0.325l0.313,0.322l0.316,0.321l0.317,0.32l0.319,0.317l0.321,0.315l0.323,0.314l0.325,0.311l0.326,0.31l0.329,0.307l0.33,0.306l0.332,0.304l0.334,0.301l0.336,0.3l0.338,0.298l0.339,0.296l0.341,0.293l0.343,0.292l0.345,0.29l0.346,0.288l0.348,0.285l0.35,0.284l0.352,0.282l0.353,0.279l0.355,0.277l0.357,0.276l0.359,0.273l0.36,0.271l0.362,0.269l0.363,0.267l0.365,0.265l0.367,0.262l0.368,0.261l0.371,0.258l0.371,0.256l0.373,0.254l0.375,0.252l0.377,0.249l0.378,0.247l0.38,0.246l0.381,0.242l0.382,0.241l0.385,0.238l0.386,0.237l0.387,0.233l0.389,0.232l0.39,0.229l0.392,0.227l0.393,0.225l0.395,0.222l0.397,0.221l0.397,0.217l0.4,0.216l0.4,0.213l0.402,0.211l0.404,0.208l0.405,0.206l0.406,0.203l0.408,0.202l0.409,0.198l0.411,0.197l0.411,0.194l0.414,0.191l0.414,0.189l0.416,0.187l0.417,0.184l0.419,0.182l0.42,0.179l0.421,0.177l0.423,0.174l0.423,0.172l0.425,0.169l0.427,0.167l0.427,0.164l0.429,0.162l0.43,0.159l0.431,0.156l0.433,0.154l0.434,0.152l0.435,0.149l0.436,0.146l0.437,0.143l0.438,0.141l0.44,0.139l0.441,0.136l0.442,0.133l0.443,0.13l0.444,0.128l0.445,0.125l0.447,0.122l0.447,0.12l0.449,0.117l0.45,0.114l0.451,0.112l0.451,0.109l0.453,0.106l0.454,0.103l0.455,0.101l0.456,0.098l0.457,0.095l0.458,0.092l0.459,0.09l0.46,0.087l0.461,0.084l0.462,0.081l0.463,0.078l0.464,0.076l0.465,0.072l0.466,0.07l0.467,0.067l0.467,0.064l0.469,0.061l0.469,0.058l0.471,0.056l0.471,0.052l0.236,0.025l0.236,0.024l0.236,0.024l0.237,0.023l0.236,0.022l0.237,0.022l0.238,0.02l0.237,0.02l0.238,0.02l0.238,0.018l0.238,0.018l0.238,0.017l0.238,0.016l0.239,0.016l0.239,0.014l0.239,0.015l0.239,0.013l0.239,0.012l0.24,0.012l0.24,0.011l0.24,0.01l0.24,0.01l0.241,0.009l0.24,0.008l0.241,0.007l0.241,0.006l0.241,0.006l0.242,0.005l0.241,0.004l0.242,0.004l0.242,0.003l0.242,0.001l0.242,0.002l0.243,0l0.242,0l0.242,-0.002l0.242,-0.001l0.242,-0.003l0.242,-0.004l0.242,-0.004l0.241,-0.005l0.241,-0.006l0.241,-0.006l0.241,-0.007l0.24,-0.008l0.241,-0.009l0.24,-0.01l0.24,-0.01l0.24,-0.011l0.24,-0.012l0.239,-0.012l0.239,-0.013l0.239,-0.015l0.239,-0.014l0.239,-0.016l0.238,-0.016l0.238,-0.017l0.239,-0.018l0.237,-0.018l0.238,-0.02l0.237,-0.02l0.238,-0.02l0.237,-0.022l0.236,-0.022l0.237,-0.023l0.236,-0.024l0.236,-0.024l0.236,-0.025l0.472,-0.052l0.47,-0.056l0.469,-0.058l0.469,-0.061l0.467,-0.064l0.467,-0.067l0.466,-0.07l0.465,-0.072l0.464,-0.076l0.463,-0.078l0.462,-0.081l0.461,-0.084l0.46,-0.087l0.459,-0.09l0.458,-0.092l0.457,-0.095l0.456,-0.098l0.455,-0.101l0.454,-0.103l0.453,-0.106l0.451,-0.109l0.451,-0.112l0.45,-0.114l0.449,-0.117l0.447,-0.12l0.447,-0.122l0.445,-0.125l0.444,-0.128l0.443,-0.13l0.442,-0.133l0.441,-0.136l0.44,-0.139l0.438,-0.141l0.437,-0.143l0.436,-0.146l0.435,-0.149l0.434,-0.152l0.433,-0.154l0.431,-0.156l0.43,-0.159l0.429,-0.162l0.427,-0.164l0.427,-0.167l0.425,-0.169l0.424,-0.172l0.422,-0.174l0.421,-0.177l0.42,-0.179l0.419,-0.182l0.417,-0.184l0.416,-0.187l0.414,-0.189l0.414,-0.191l0.412,-0.194l0.41,-0.197l0.409,-0.198l0.408,-0.202l0.406,-0.203l0.405,-0.206l0.404,-0.208l0.402,-0.211l0.4,-0.213l0.4,-0.216l0.397,-0.217l0.397,-0.221l0.395,-0.222l0.393,-0.225l0.392,-0.227l0.39,-0.229l0.389,-0.232l0.387,-0.233l0.386,-0.237l0.385,-0.238l0.382,-0.241l0.381,-0.242l0.38,-0.246l0.378,-0.247l0.377,-0.249l0.375,-0.252l0.373,-0.254l0.372,-0.256l0.37,-0.258l0.368,-0.261l0.367,-0.262l0.365,-0.265l0.363,-0.267l0.362,-0.269l0.36,-0.271l0.359,-0.273l0.357,-0.276l0.355,-0.277l0.353,-0.279l0.352,-0.282l0.35,-0.284l0.348,-0.285l0.346,-0.288l0.345,-0.29l0.343,-0.292l0.341,-0.293l0.34,-0.296l0.337,-0.298l0.336,-0.3l0.334,-0.301l0.332,-0.304l0.33,-0.306l0.329,-0.307l0.326,-0.31l0.325,-0.311l0.323,-0.314l0.321,-0.315l0.319,-0.317l0.317,-0.32l0.316,-0.321l0.313,-0.322l0.312,-0.325l0.309,-0.327l0.308,-0.328l0.305,-0.331l0.304,-0.332l0.302,-0.334l0.3,-0.335l0.297,-0.338l0.296,-0.339l0.294,-0.341l0.292,-0.343l0.29,-0.345l0.287,-0.347l0.286,-0.348l0.283,-0.35l0.282,-0.351l0.28,-0.354l0.277,-0.355l0.275,-0.357l0.273,-0.358l0.272,-0.36l0.269,-0.362l0.266,-0.364l0.265,-0.365l0.263,-0.367l0.26,-0.368l0.258,-0.37l0.256,-0.372l0.254,-0.373l0.252,-0.375l0.25,-0.376l0.247,-0.378l0.245,-0.38l0.243,-0.381l0.241,-0.383l0.238,-0.384l0.236,-0.386l0.234,-0.387l0.232,-0.389l0.229,-0.391l0.227,-0.392l0.225,-0.393l0.222,-0.395l0.22,-0.396l0.218,-0.398l0.215,-0.399l0.213,-0.401l0.211,-0.402l0.208,-0.403l0.206,-0.405l0.204,-0.407l0.201,-0.407l0.199,-0.409l0.196,-0.411l0.194,-0.412l0.192,-0.413l0.189,-0.415l0.187,-0.416l0.184,-0.417l0.182,-0.418l0.179,-0.42l0.177,-0.422l0.174,-0.422l0.172,-0.424l0.169,-0.425l0.166,-0.426l0.165,-0.428l0.161,-0.429l0.159,-0.43l0.157,-0.431l0.154,-0.432l0.151,-0.434l0.149,-0.435l0.146,-0.436l0.144,-0.437l0.141,-0.439l0.138,-0.44l0.136,-0.44l0.133,-0.442l0.131,-0.443l0.127,-0.445l0.125,-0.445l0.123,-0.446l0.12,-0.448l0.117,-0.449l0.114,-0.449l0.112,-0.451l0.108,-0.452l0.107,-0.453l0.103,-0.454l0.101,-0.455l0.098,-0.456l0.095,-0.457l0.092,-0.458l0.09,-0.459l0.086,-0.46l0.084,-0.461l0.081,-0.462l0.079,-0.463l0.075,-0.464l0.073,-0.465l0.069,-0.465l0.067,-0.467l0.064,-0.468l0.061,-0.468l0.059,-0.47l0.055,-0.47l0.052,-0.471l0.026,-0.236l0.024,-0.236l0.024,-0.237l0.023,-0.236l0.022,-0.237l0.021,-0.237l0.021,-0.237l0.02,-0.238l0.019,-0.237l0.019,-0.238l0.017,-0.238l0.017,-0.238l0.017,-0.239l0.015,-0.238l0.015,-0.239l0.014,-0.239l0.013,-0.24l0.013,-0.239l0.012,-0.24l0.011,-0.239l0.01,-0.24l0.009,-0.241l0.009,-0.24l0.008,-0.241l0.008,-0.24l0.006,-0.241l0.006,-0.242l0.005,-0.241l0.004,-0.242l0.003,-0.241l0.003,-0.242l0.002,-0.242l0.001,-0.243l0.001,-0.242l-0.001,-0.242l-0.001,-0.243l-0.002,-0.242l-0.003,-0.242l-0.003,-0.241l-0.004,-0.242l-0.005,-0.241l-0.006,-0.242l-0.006,-0.241l-0.008,-0.24l-0.008,-0.241l-0.009,-0.24l-0.009,-0.241l-0.01,-0.24l-0.011,-0.239l-0.012,-0.24l-0.013,-0.239l-0.013,-0.24l-0.014,-0.239l-0.015,-0.239l-0.015,-0.238l-0.017,-0.239l-0.017,-0.238l-0.017,-0.238l-0.019,-0.238l-0.019,-0.237l-0.02,-0.238l-0.021,-0.237l-0.021,-0.237l-0.022,-0.237l-0.023,-0.236l-0.024,-0.237l-0.024,-0.236l-0.026,-0.236l-0.052,-0.471l-0.055,-0.47l-0.059,-0.47l-0.061,-0.468l-0.064,-0.468l-0.067,-0.467l-0.069,-0.465l-0.073,-0.465l-0.075,-0.464l-0.079,-0.463l-0.081,-0.462l-0.084,-0.461l-0.086,-0.46l-0.09,-0.459l-0.092,-0.458l-0.095,-0.457l-0.098,-0.456l-0.101,-0.455l-0.103,-0.454l-0.107,-0.453l-0.108,-0.452l-0.112,-0.451l-0.114,-0.449l-0.117,-0.449l-0.12,-0.448l-0.123,-0.446l-0.125,-0.445l-0.127,-0.445l-0.131,-0.443l-0.133,-0.442l-0.136,-0.44l-0.138,-0.44l-0.141,-0.439l-0.144,-0.437l-0.146,-0.436l-0.149,-0.435l-0.151,-0.434l-0.154,-0.432l-0.157,-0.431l-0.159,-0.43l-0.161,-0.429l-0.165,-0.428l-0.166,-0.426l-0.169,-0.425l-0.172,-0.424l-0.174,-0.422l-0.177,-0.422l-0.179,-0.42l-0.182,-0.418l-0.184,-0.417l-0.187,-0.416l-0.189,-0.415l-0.192,-0.413l-0.194,-0.412l-0.196,-0.411l-0.199,-0.409l-0.201,-0.407l-0.204,-0.407l-0.206,-0.405l-0.208,-0.403l-0.211,-0.402l-0.213,-0.401l-0.215,-0.399l-0.218,-0.398l-0.22,-0.396l-0.222,-0.395l-0.225,-0.393l-0.227,-0.392l-0.229,-0.391l-0.232,-0.389l-0.234,-0.387l-0.236,-0.386l-0.238,-0.384l-0.241,-0.383l-0.243,-0.381l-0.245,-0.38l-0.247,-0.378l-0.25,-0.376l-0.252,-0.375l-0.254,-0.373l-0.256,-0.372l-0.258,-0.37l-0.26,-0.368l-0.263,-0.367l-0.265,-0.365l-0.266,-0.364l-0.269,-0.362l-0.272,-0.36l-0.273,-0.358l-0.275,-0.357l-0.277,-0.355l-0.28,-0.354l-0.282,-0.351l-0.283,-0.35l-0.286,-0.348l-0.287,-0.347l-0.29,-0.345l-0.292,-0.343l-0.294,-0.341l-0.296,-0.339l-0.297,-0.338l-0.3,-0.335l-0.302,-0.334l-0.304,-0.332l-0.305,-0.331l-0.308,-0.328l-0.309,-0.327l-0.312,-0.325l-0.313,-0.322l-0.316,-0.321l-0.317,-0.32l-0.319,-0.317l-0.321,-0.315l-0.323,-0.314l-0.325,-0.311l-0.326,-0.31l-0.329,-0.307l-0.33,-0.306l-0.332,-0.304l-0.334,-0.301l-0.336,-0.3l-0.337,-0.298l-0.34,-0.296l-0.341,-0.293l-0.343,-0.292l-0.345,-0.29l-0.346,-0.288l-0.348,-0.285l-0.35,-0.284l-0.352,-0.282l-0.353,-0.279l-0.355,-0.277l-0.357,-0.276l-0.359,-0.273l-0.36,-0.271l-0.362,-0.269l-0.363,-0.267l-0.365,-0.265l-0.367,-0.262l-0.368,-0.261l-0.37,-0.258l-0.372,-0.256l-0.373,-0.254l-0.375,-0.252l-0.377,-0.249l-0.378,-0.247l-0.38,-0.246l-0.381,-0.242l-0.382,-0.241l-0.385,-0.238l-0.386,-0.237l-0.387,-0.233l-0.389,-0.232l-0.39,-0.229l-0.392,-0.227l-0.393,-0.225l-0.395,-0.222l-0.397,-0.221l-0.397,-0.217l-0.4,-0.216l-0.4,-0.213l-0.402,-0.211l-0.404,-0.208l-0.405,-0.206l-0.406,-0.203l-0.408,-0.202l-0.409,-0.198l-0.41,-0.197l-0.412,-0.194l-0.414,-0.191l-0.414,-0.189l-0.416,-0.187l-0.417,-0.184l-0.419,-0.182l-0.42,-0.179l-0.421,-0.177l-0.422,-0.174l-0.424,-0.172l-0.425,-0.169l-0.427,-0.167l-0.427,-0.164l-0.429,-0.162l-0.43,-0.159l-0.431,-0.156l-0.433,-0.154l-0.434,-0.152l-0.435,-0.149l-0.436,-0.146l-0.437,-0.143l-0.438,-0.141l-0.44,-0.139l-0.441,-0.136l-0.442,-0.133l-0.443,-0.13l-0.444,-0.128l-0.445,-0.125l-0.447,-0.122l-0.447,-0.12l-0.449,-0.117l-0.45,-0.114l-0.451,-0.112l-0.451,-0.109l-0.453,-0.106l-0.454,-0.103l-0.455,-0.101l-0.456,-0.098l-0.457,-0.095l-0.458,-0.092l-0.459,-0.09l-0.46,-0.087l-0.461,-0.084l-0.462,-0.081l-0.463,-0.078l-0.464,-0.076l-0.465,-0.072l-0.466,-0.07l-0.467,-0.067l-0.467,-0.064l-0.469,-0.061l-0.469,-0.058l-0.47,-0.056l-0.472,-0.052l-0.236,-0.025l-0.236,-0.024l-0.236,-0.024l-0.237,-0.023l-0.236,-0.022l-0.237,-0.022l-0.238,-0.02l-0.237,-0.02l-0.238,-0.02l-0.237,-0.018l-0.239,-0.018l-0.238,-0.017l-0.238,-0.016l-0.239,-0.016l-0.239,-0.014l-0.239,-0.015l-0.239,-0.013l-0.239,-0.012l-0.24,-0.012l-0.24,-0.011l-0.24,-0.01l-0.24,-0.01l-0.241,-0.009l-0.24,-0.008l-0.241,-0.007l-0.241,-0.006l-0.241,-0.006l-0.241,-0.005l-0.242,-0.004l-0.242,-0.004l-0.242,-0.003l-0.242,-0.001l-0.242,-0.002l-0.242,0l-0.243,0Z" style="fill:#fff;"/>
    <g>
        <g transform="matrix(1.16897,0,0,1.16897,45.1777,-119.894)">
            <text x="50.57px" y="278.33px" style="font-family:'BrandonGrotesque-Medium', 'Brandon Grotesque', sans-serif;font-weight:420;font-size:128.318px;fill:#fff;">g</text>
            <text x="109.596px" y="278.33px" style="font-family:'BrandonGrotesque-Medium', 'Brandon Grotesque', sans-serif;font-weight:420;font-size:128.318px;fill:#fff;">i</text>
            <text x="137.185px" y="278.33px" style="font-family:'BrandonGrotesque-Medium', 'Brandon Grotesque', sans-serif;font-weight:420;font-size:128.318px;fill:#fff;">t</text>
        </g>
        <text x="191.109px" y="347.349px" style="font-family:'Courier';font-size:90px;fill:#fff;">s<tspan x="239.718px " y="347.349px ">h</tspan></text>
    </g>
</svg>
