<?xml version="1.0" encoding="utf-8"?>
<!-- Generator: Adobe Illustrator 17.1.0, SVG Export Plug-In . SVG Version: 6.00 Build 0)  -->
<!DOCTYPE svg PUBLIC "-//W3C//DTD SVG 1.1//EN" "http://www.w3.org/Graphics/SVG/1.1/DTD/svg11.dtd">
<svg version="1.1" id="Layer_1" xmlns="http://www.w3.org/2000/svg" xmlns:xlink="http://www.w3.org/1999/xlink" x="0px" y="0px"
	 viewBox="0 0 374.9 445" enable-background="new 0 0 374.9 445" xml:space="preserve">
<path fill="#403B33" d="M257.6,258h-2.3c-49.4,0-89.4,40-89.4,89.4v2.3c0,49.4,40,89.4,89.4,89.4h2.3c49.4,0,89.4-40,89.4-89.4v-2.3
	C346.9,298,306.9,258,257.6,258z M232.9,387v8.2c0,1.5-1.5,2.9-3,2.9c-1.5,0-3-1.3-3-2.9V387c-12-0.7-19.9-6.7-23.4-13.4
	c-0.4-0.9-0.6-1.3-0.6-2c0-2,1.5-3.5,3.5-3.5c1.3,0,2.4,0.7,3.1,1.8c3.5,5.7,9.9,10.4,19.6,10.4c12.1,0,18.9-4.8,18.9-14.5
	c0-20.6-41.4-10.9-41.4-36.9c0-9.5,6.4-17.6,20.4-18.7v-8.4c0-1.5,1.5-2.9,3-2.9c1.5,0,3,1.3,3,2.9v8.4c9,0.7,16.3,4.9,20.6,11.2
	c0.4,0.7,0.5,1.3,0.5,2.1c0,2-1.6,3.5-3.6,3.5c-1,0-2-0.3-2.9-1.4c-3.3-4.1-8.6-8.7-17.8-8.7c-11.5,0-15.9,5.7-15.9,12
	c0,18.2,41.8,10.4,41.8,36.9C255.7,378.7,246.9,386,232.9,387z M313.9,382.7c0,2.2-1.3,3.9-3.5,3.9s-3.5-1.7-3.5-3.9v-30.8
	c0-9.6-2.9-16.1-14.7-16.1c-12,0-16.3,7.3-16.3,17v30c0,2.2-1.8,3.9-4,3.9c-2.2,0-4-1.7-4-3.9v-79.6c0-2.2,1.8-3.9,4-3.9
	c2.2,0,4,1.7,4,3.9v34.2c2-4.6,8-8.5,15.9-8.5c18.7,0,22.1,11.2,22.1,21.5V382.7z"/>
<g>
	<path fill="#EE533A" d="M350,145.8L228.2,23.9c-23.3-23.3-61.1-23.3-84.4,0L22,145.8c-23.3,23.3-23.3,61.1,0,84.4L143.8,352
		c3.7,3.7,7.8,6.9,12.1,9.4c-0.6-4.3-0.9-8.7-0.9-13.2v-1.9c0-54.8,44.8-99.3,99.6-99.3h1.9c21.7,0,41.7,6.9,58.1,18.7l35.5-35.5
		C373.3,206.9,373.3,169.1,350,145.8z M171.9,209.9c0,24.4-11.9,38.3-38.2,38.3c-14.3,0-24.9-4.4-31-11.7c-0.9-1.1-1.7-2.8-1.7-5.1
		c0-4.6,3.9-8.5,8.5-8.5c2.1,0,3.5,0.7,5.7,2.1c4.4,3.2,10.3,6.9,18.7,6.9c12.6,0,19-6.6,19-17.4v-6.7c-4,3.5-10.9,7.1-19.4,7.1
		c-22.3,0-36-13.8-36-42.7s13.9-42.5,37.8-42.5c21.4,0,36.6,11.9,36.6,35.4V209.9z M208.9,204.4c0,5.3-4.2,9.6-9.5,9.6
		c-5.3,0-9.5-4.3-9.5-9.6v-64.1c0-5.3,4.2-9.6,9.5-9.6c5.3,0,9.5,4.3,9.5,9.6V204.4z M199.1,121.1c-7.3,0-11.3-4.3-11.3-11.2
		c0-8.1,4.1-11.7,11.3-11.7c7.4,0,11.5,3.5,11.5,11.7C210.6,116.9,206.5,121.1,199.1,121.1z M257.9,197.3c4.6,0,8.4,3.7,8.4,8.3
		c0,4.6-3.5,8.3-8.1,8.3c-15.8,0-25.3-10.1-25.3-24.1V148h-4.5c-4.4,0-8-3.6-8-8c0-4.4,3.5-8,8-8h4.5v-14.8c0-5.1,3.9-9.4,9-9.4
		s9,4.3,9,9.4V132h8.3c4.4,0,8,3.6,8,8c0,4.4-3.5,8-8,8h-8.3v42.9C250.9,195,254.7,197.3,257.9,197.3z"/>
	<path fill="#EE533A" d="M135.4,145.9c-12.2,0-18.9,8.9-18.9,26.2c0,17.5,6.9,26.4,18.9,26.4c10.6,0,17.5-9,17.5-9v-24.4
		C152.9,152.8,145.7,145.9,135.4,145.9z"/>
</g>
</svg>
